<svg width="46" height="45" viewBox="0 0 46 45" fill="none" xmlns="http://www.w3.org/2000/svg">
<path d="M33.4765 2.81105C37.2273 4.68508 40.1899 7.33898 42.3704 10.7728C44.551 14.2065 45.6412 18.1292 45.6412 22.5291C45.6412 26.929 44.551 30.84 42.3704 34.2563C40.1899 37.6727 37.2273 40.3149 33.4765 42.189C29.7258 44.063 25.5662 45 21.0037 45H0.265015V0H21.0037C25.5721 0 29.7258 0.937015 33.4765 2.81105ZM26.5617 31.3289C28.2148 30.485 29.5243 29.3035 30.4901 27.7787C31.456 26.2597 31.9359 24.5079 31.9359 22.5349C31.9359 20.562 31.456 18.8101 30.4901 17.2853C29.5243 15.7605 28.2148 14.5674 26.5617 13.706C24.9085 12.8447 23.0539 12.4082 20.9978 12.4082H13.4548V32.5918H20.9978C23.0479 32.5918 24.9026 32.1728 26.5617 31.3289Z" fill="#A1F1FF"/>
</svg>
