<svg width="32" height="32" viewBox="0 0 32 32" fill="none" xmlns="http://www.w3.org/2000/svg">
<g clip-path="url(#clip0_16_81)">
<path d="M4.00002 4H28C28.3536 4 28.6928 4.14048 28.9428 4.39052C29.1929 4.64057 29.3334 4.97971 29.3334 5.33333V26.6667C29.3334 27.0203 29.1929 27.3594 28.9428 27.6095C28.6928 27.8595 28.3536 28 28 28H4.00002C3.6464 28 3.30726 27.8595 3.05721 27.6095C2.80716 27.3594 2.66669 27.0203 2.66669 26.6667V5.33333C2.66669 4.97971 2.80716 4.64057 3.05721 4.39052C3.30726 4.14048 3.6464 4 4.00002 4ZM5.33335 6.66667V25.3333H26.6667V6.66667H5.33335ZM11.3334 18.6667H18.6667C18.8435 18.6667 19.0131 18.5964 19.1381 18.4714C19.2631 18.3464 19.3334 18.1768 19.3334 18C19.3334 17.8232 19.2631 17.6536 19.1381 17.5286C19.0131 17.4036 18.8435 17.3333 18.6667 17.3333H13.3334C12.4493 17.3333 11.6015 16.9821 10.9763 16.357C10.3512 15.7319 10 14.8841 10 14C10 13.1159 10.3512 12.2681 10.9763 11.643C11.6015 11.0179 12.4493 10.6667 13.3334 10.6667H14.6667V8H17.3334V10.6667H20.6667V13.3333H13.3334C13.1565 13.3333 12.987 13.4036 12.8619 13.5286C12.7369 13.6536 12.6667 13.8232 12.6667 14C12.6667 14.1768 12.7369 14.3464 12.8619 14.4714C12.987 14.5964 13.1565 14.6667 13.3334 14.6667H18.6667C19.5507 14.6667 20.3986 15.0179 21.0237 15.643C21.6488 16.2681 22 17.1159 22 18C22 18.8841 21.6488 19.7319 21.0237 20.357C20.3986 20.9821 19.5507 21.3333 18.6667 21.3333H17.3334V24H14.6667V21.3333H11.3334V18.6667Z" fill="white"/>
</g>
<defs>
<clipPath id="clip0_16_81">
<rect width="32" height="32" fill="white"/>
</clipPath>
</defs>
</svg>
