<svg width="50" height="45" viewBox="0 0 50 45" fill="none" xmlns="http://www.w3.org/2000/svg">
<path fill-rule="evenodd" clip-rule="evenodd" d="M42.8701 0H14.8848C10.18 0 5.75381 2.37455 3.35405 6.34959C-3.64377 17.9313 4.85316 29.9961 16.0817 29.9961H16.4253L25.2422 44.9942L34.0591 29.9961H16.4253H16.0817C7.67954 29.9961 0.812078 36.7473 0.812078 44.9942H7.60844H25.2422H35.5997C40.3044 44.9942 44.7307 42.6196 47.1304 38.6446C54.1223 27.0687 45.6491 15.0213 34.4384 14.9981H34.468C42.8405 14.9631 49.6783 8.22944 49.6783 0H42.882L42.8701 0ZM25.2363 0L34.0532 14.9981H16.4194L25.2363 0Z" fill="#A1F1FF"/>
</svg>
