<svg width="74" height="39" viewBox="0 0 74 39" fill="none" xmlns="http://www.w3.org/2000/svg">
<path d="M10.9544 14.4075C10.5219 15.4668 9.75751 15.9964 8.66132 15.9964C7.56513 15.9964 6.74152 15.4551 6.28527 14.3843L0.703598 0.858643H4.16992L8.65541 11.288L13.1172 0.858643H16.5835L10.9485 14.4134L10.9544 14.4075Z" fill="white"/>
<path d="M20.8971 15.717H17.6382V0.858643H20.8971V15.717Z" fill="white"/>
<path d="M49.0425 1.79566C48.2426 1.17292 47.1938 0.858643 45.8843 0.858643H35.1002C34.6439 0.858643 34.2351 1.12636 34.0573 1.53958L29.8859 11.288L25.4004 0.858643H21.9341L27.5157 14.3843C27.9661 15.4609 28.7601 15.9964 29.8918 15.9964C31.0235 15.9964 31.7524 15.4668 32.1849 14.4075L36.4393 4.18184C36.5282 3.96651 36.7415 3.82683 36.9726 3.82683H44.9955C46.3168 3.82683 46.9805 4.46702 46.9805 5.74742V6.18391H40.6404C39.3368 6.18391 38.2821 6.49819 37.4822 7.12093C36.6822 7.74367 36.2852 8.68068 36.2852 9.92615V11.8467C36.2852 13.1097 36.6822 14.07 37.4822 14.7276C38.2821 15.3853 39.3368 15.7112 40.6404 15.7112H45.8843C47.1879 15.7112 48.2426 15.3795 49.0425 14.7276C49.8424 14.07 50.2394 13.1097 50.2394 11.8467V4.59506C50.2394 3.34959 49.8424 2.41257 49.0425 1.78984V1.79566ZM46.9805 10.5198C46.9805 11.3404 46.8264 11.9166 46.5124 12.2483C46.1983 12.5801 45.6947 12.7488 45.0014 12.7488H41.4818C40.8537 12.7488 40.3796 12.6266 40.0478 12.388C39.716 12.1494 39.5501 11.7303 39.5501 11.1309V10.642C39.5501 9.65262 40.196 9.15792 41.4818 9.15792H46.9864V10.514L46.9805 10.5198Z" fill="white"/>
<path d="M4.16399 38.1472V35.1674H11.2448C12.5306 35.1674 13.1764 34.6086 13.1764 33.497C13.1764 32.5367 12.5306 32.0595 11.2448 32.0595H8.39469C7.03779 32.0595 5.97123 31.6987 5.19501 30.9828C4.41879 30.2611 4.03363 29.2368 4.03363 27.904V27.0078C4.03363 25.7565 4.43655 24.8195 5.23647 24.1967C6.03639 23.574 7.09112 23.2597 8.40062 23.2597H16.2161V26.2628H9.21239C7.93844 26.2628 7.30443 26.74 7.30443 27.7003C7.30443 28.6606 7.93844 29.0855 9.21239 29.0855H12.0625C13.3838 29.0855 14.4504 29.3998 15.2503 30.0225C16.0502 30.6452 16.4531 31.5823 16.4531 32.8336V34.2711C16.4531 35.5398 16.0502 36.5001 15.2384 37.1578C14.4267 37.8154 13.372 38.1472 12.0625 38.1472H4.16992H4.16399Z" fill="white"/>
<path d="M20.9031 30.267L27.018 23.2597H31.0176L24.482 30.7034L31.2013 38.1472H27.1247L20.9031 31.2389V38.1472H17.6382V18.1265H20.9031V30.267Z" fill="white"/>
<path d="M35.6986 38.1472H32.4338V23.2597H35.6986V38.1472Z" fill="white"/>
<path d="M35.6986 18.1207H32.4338V21.0307H35.6986V18.1207Z" fill="white"/>
<path d="M47.9522 28.1601C47.9522 26.8914 47.2412 26.2628 45.8072 26.2628H42.5661C41.2447 26.2628 40.5811 26.8972 40.5811 28.1601V38.1472H37.3162V26.9787C37.3162 25.7274 37.7132 24.7962 38.5072 24.1793C39.3012 23.5623 40.3559 23.2539 41.6832 23.2539H46.856C48.1655 23.2539 49.2143 23.5682 50.0202 24.2025C50.8201 24.8369 51.223 25.7797 51.223 27.0252V38.1414H47.9581V28.1543L47.9522 28.1601Z" fill="white"/>
<path d="M52.7873 38.1472V35.1674H59.8681C61.1539 35.1674 61.7997 34.6086 61.7997 33.497C61.7997 32.5367 61.1539 32.0595 59.8681 32.0595H57.018C55.6611 32.0595 54.5945 31.6987 53.8183 30.9828C53.0421 30.2611 52.6569 29.2368 52.6569 27.904V27.0078C52.6569 25.7565 53.0599 24.8195 53.8598 24.1967C54.6597 23.574 55.7144 23.2597 57.0239 23.2597H64.8394V26.2628H57.8357C56.5617 26.2628 55.9277 26.74 55.9277 27.7003C55.9277 28.6606 56.5617 29.0855 57.8357 29.0855H60.6858C62.0071 29.0855 63.0737 29.3998 63.8736 30.0225C64.6735 30.6452 65.0764 31.5823 65.0764 32.8336V34.2711C65.0764 35.5398 64.6735 36.5001 63.8617 37.1578C63.05 37.8154 61.9953 38.1472 60.6858 38.1472H52.7932H52.7873Z" fill="white"/>
<path d="M62.493 6.85904V3.80356H64.4187V13.4123C64.4187 14.1631 64.1817 14.7393 63.7018 15.1292C63.2218 15.5192 62.5997 15.717 61.8175 15.717H58.7245C57.9483 15.717 57.3202 15.5192 56.8402 15.1292C56.3603 14.7393 56.1233 14.1631 56.1233 13.4123V9.08809C56.1233 8.34313 56.3603 7.78442 56.8402 7.41776C57.3202 7.04528 57.9423 6.85904 58.7245 6.85904H62.4871H62.493ZM62.493 8.64577H59.477C59.0207 8.64577 58.6711 8.72143 58.4341 8.86693C58.1971 9.01243 58.0786 9.31507 58.0786 9.77485V12.8129C58.0786 13.2726 58.2031 13.5753 58.446 13.7208C58.6889 13.8663 59.0326 13.9419 59.4829 13.9419H61.225C62.0723 13.9419 62.4989 13.5636 62.4989 12.8129V8.64577H62.493Z" fill="white"/>
<path d="M73.8104 15.717H68.3235C67.5592 15.717 66.937 15.5133 66.457 15.1118C65.9771 14.7102 65.7401 14.1282 65.7401 13.3658V9.08809C65.7401 8.34313 65.9771 7.78441 66.457 7.41776C66.937 7.04528 67.5592 6.85904 68.3413 6.85904H71.4699C72.2342 6.85904 72.8505 7.0511 73.3127 7.4294C73.7748 7.80769 74.0059 8.37805 74.0059 9.13465V10.7351L67.7073 12.9991C67.7073 13.3832 67.8139 13.6393 68.0332 13.7615C68.2524 13.8837 68.6257 13.9419 69.1531 13.9419H73.8163V15.7112L73.8104 15.717ZM67.6658 11.2124L72.0506 9.60606V9.46638C72.0506 9.12883 71.9617 8.90767 71.778 8.80291C71.5943 8.69815 71.221 8.63995 70.6522 8.63995H69.0227C68.5131 8.63995 68.1635 8.73889 67.968 8.94259C67.7725 9.14629 67.6717 9.45475 67.6717 9.87378V11.2007L67.6658 11.2124Z" fill="white"/>
<path d="M52.5681 6.18973H43.8519V9.16373H52.5681V6.18973Z" fill="white"/>
</svg>
