<svg width="223" height="45" viewBox="0 0 223 45" fill="none" xmlns="http://www.w3.org/2000/svg">
<g clip-path="url(#clip0_1_3)">
<path d="M79.4765 2.81105C83.2273 4.68508 86.1899 7.33898 88.3704 10.7728C90.551 14.2065 91.6412 18.1292 91.6412 22.5291C91.6412 26.929 90.551 30.84 88.3704 34.2563C86.1899 37.6727 83.2273 40.3149 79.4765 42.189C75.7258 44.063 71.5662 45 67.0037 45H46.265V0H67.0037C71.5721 0 75.7258 0.937015 79.4765 2.81105ZM72.5617 31.3289C74.2148 30.485 75.5243 29.3035 76.4901 27.7787C77.456 26.2597 77.9359 24.5079 77.9359 22.5349C77.9359 20.562 77.456 18.8101 76.4901 17.2853C75.5243 15.7605 74.2148 14.5674 72.5617 13.706C70.9085 12.8447 69.0539 12.4082 66.9978 12.4082H59.4548V32.5918H66.9978C69.0479 32.5918 70.9026 32.1728 72.5617 31.3289Z" fill="#A1F1FF"/>
<path fill-rule="evenodd" clip-rule="evenodd" d="M128.87 0H100.885C96.18 0 91.7538 2.37455 89.3541 6.34959C82.3562 17.9313 90.8532 29.9961 102.082 29.9961H102.425L111.242 44.9942L120.059 29.9961H102.425H102.082C93.6795 29.9961 86.8121 36.7473 86.8121 44.9942H93.6084H111.242H121.6C126.304 44.9942 130.731 42.6196 133.13 38.6446C140.122 27.0687 131.649 15.0213 120.438 14.9981H120.468C128.84 14.9631 135.678 8.22944 135.678 0H128.882L128.87 0ZM111.236 0L120.053 14.9981H102.419L111.236 0Z" fill="#A1F1FF"/>
<path d="M49.9624 0L38.1947 43.4461C37.9458 44.3656 37.0985 45 36.1327 45H14.1319C13.172 45 12.3306 44.3656 12.0758 43.4577L0 0H14.2682L25.3308 45L36.1327 0H49.9565H49.9624Z" fill="#A1F1FF"/>
<path d="M159.954 17.4075C159.522 18.4668 158.758 18.9964 157.661 18.9964C156.565 18.9964 155.742 18.4551 155.285 17.3843L149.704 3.85864H153.17L157.655 14.288L162.117 3.85864H165.584L159.949 17.4134L159.954 17.4075Z" fill="white"/>
<path d="M169.897 18.717H166.638V3.85864H169.897V18.717Z" fill="white"/>
<path d="M198.042 4.79566C197.243 4.17292 196.194 3.85864 194.884 3.85864H184.1C183.644 3.85864 183.235 4.12636 183.057 4.53958L178.886 14.288L174.4 3.85864H170.934L176.516 17.3843C176.966 18.4609 177.76 18.9964 178.892 18.9964C180.024 18.9964 180.752 18.4668 181.185 17.4075L185.439 7.18184C185.528 6.96651 185.741 6.82683 185.973 6.82683H193.995C195.317 6.82683 195.98 7.46702 195.98 8.74742V9.18391H189.64C188.337 9.18391 187.282 9.49819 186.482 10.1209C185.682 10.7437 185.285 11.6807 185.285 12.9262V14.8467C185.285 16.1097 185.682 17.07 186.482 17.7276C187.282 18.3853 188.337 18.7112 189.64 18.7112H194.884C196.188 18.7112 197.243 18.3795 198.042 17.7276C198.842 17.07 199.239 16.1097 199.239 14.8467V7.59506C199.239 6.34959 198.842 5.41257 198.042 4.78984V4.79566ZM195.98 13.5198C195.98 14.3404 195.826 14.9166 195.512 15.2483C195.198 15.5801 194.695 15.7488 194.001 15.7488H190.482C189.854 15.7488 189.38 15.6266 189.048 15.388C188.716 15.1494 188.55 14.7303 188.55 14.1309V13.642C188.55 12.6526 189.196 12.1579 190.482 12.1579H195.986V13.514L195.98 13.5198Z" fill="white"/>
<path d="M153.164 41.1472V38.1674H160.245C161.531 38.1674 162.176 37.6086 162.176 36.497C162.176 35.5367 161.531 35.0595 160.245 35.0595H157.395C156.038 35.0595 154.971 34.6987 154.195 33.9828C153.419 33.2611 153.034 32.2368 153.034 30.904V30.0078C153.034 28.7565 153.437 27.8195 154.236 27.1967C155.036 26.574 156.091 26.2597 157.401 26.2597H165.216V29.2628H158.212C156.938 29.2628 156.304 29.74 156.304 30.7003C156.304 31.6606 156.938 32.0855 158.212 32.0855H161.062C162.384 32.0855 163.45 32.3998 164.25 33.0225C165.05 33.6452 165.453 34.5823 165.453 35.8336V37.2711C165.453 38.5398 165.05 39.5001 164.238 40.1578C163.427 40.8154 162.372 41.1472 161.062 41.1472H153.17H153.164Z" fill="white"/>
<path d="M169.903 33.267L176.018 26.2597H180.018L173.482 33.7034L180.201 41.1472H176.125L169.903 34.2389V41.1472H166.638V21.1265H169.903V33.267Z" fill="white"/>
<path d="M184.699 41.1472H181.434V26.2597H184.699V41.1472Z" fill="white"/>
<path d="M184.699 21.1207H181.434V24.0307H184.699V21.1207Z" fill="white"/>
<path d="M196.952 31.1601C196.952 29.8914 196.241 29.2628 194.807 29.2628H191.566C190.245 29.2628 189.581 29.8972 189.581 31.1601V41.1472H186.316V29.9787C186.316 28.7274 186.713 27.7962 187.507 27.1793C188.301 26.5623 189.356 26.2539 190.683 26.2539H195.856C197.166 26.2539 198.214 26.5682 199.02 27.2025C199.82 27.8369 200.223 28.7797 200.223 30.0252V41.1414H196.958V31.1543L196.952 31.1601Z" fill="white"/>
<path d="M201.787 41.1472V38.1674H208.868C210.154 38.1674 210.8 37.6086 210.8 36.497C210.8 35.5367 210.154 35.0595 208.868 35.0595H206.018C204.661 35.0595 203.595 34.6987 202.818 33.9828C202.042 33.2611 201.657 32.2368 201.657 30.904V30.0078C201.657 28.7565 202.06 27.8195 202.86 27.1967C203.66 26.574 204.714 26.2597 206.024 26.2597H213.839V29.2628H206.836C205.562 29.2628 204.928 29.74 204.928 30.7003C204.928 31.6606 205.562 32.0855 206.836 32.0855H209.686C211.007 32.0855 212.074 32.3998 212.874 33.0225C213.674 33.6452 214.076 34.5823 214.076 35.8336V37.2711C214.076 38.5398 213.674 39.5001 212.862 40.1578C212.05 40.8154 210.995 41.1472 209.686 41.1472H201.793H201.787Z" fill="white"/>
<path d="M211.493 9.85904V6.80356H213.419V16.4123C213.419 17.1631 213.182 17.7393 212.702 18.1292C212.222 18.5192 211.6 18.717 210.818 18.717H207.724C206.948 18.717 206.32 18.5192 205.84 18.1292C205.36 17.7393 205.123 17.1631 205.123 16.4123V12.0881C205.123 11.3431 205.36 10.7844 205.84 10.4178C206.32 10.0453 206.942 9.85904 207.724 9.85904H211.487H211.493ZM211.493 11.6458H208.477C208.021 11.6458 207.671 11.7214 207.434 11.8669C207.197 12.0124 207.079 12.3151 207.079 12.7748V15.8129C207.079 16.2726 207.203 16.5753 207.446 16.7208C207.689 16.8663 208.033 16.9419 208.483 16.9419H210.225C211.072 16.9419 211.499 16.5636 211.499 15.8129V11.6458H211.493Z" fill="white"/>
<path d="M222.81 18.717H217.324C216.559 18.717 215.937 18.5133 215.457 18.1118C214.977 17.7102 214.74 17.1282 214.74 16.3658V12.0881C214.74 11.3431 214.977 10.7844 215.457 10.4178C215.937 10.0453 216.559 9.85904 217.341 9.85904H220.47C221.234 9.85904 221.85 10.0511 222.313 10.4294C222.775 10.8077 223.006 11.3781 223.006 12.1346V13.7351L216.707 15.9991C216.707 16.3832 216.814 16.6393 217.033 16.7615C217.252 16.8837 217.626 16.9419 218.153 16.9419H222.816V18.7112L222.81 18.717ZM216.666 14.2124L221.051 12.6061V12.4664C221.051 12.1288 220.962 11.9077 220.778 11.8029C220.594 11.6981 220.221 11.6399 219.652 11.6399H218.023C217.513 11.6399 217.164 11.7389 216.968 11.9426C216.772 12.1463 216.672 12.4547 216.672 12.8738V14.2007L216.666 14.2124Z" fill="white"/>
<path d="M201.568 9.18973H192.852V12.1637H201.568V9.18973Z" fill="white"/>
</g>
<defs>
<clipPath id="clip0_1_3">
<rect width="223" height="45" fill="white"/>
</clipPath>
</defs>
</svg>
